<mxfile host="app.diagrams.net" modified="2023-11-06T06:07:42.979Z" agent="Mozilla/5.0 (Windows NT 10.0; Win64; x64) AppleWebKit/537.36 (KHTML, like Gecko) Chrome/119.0.0.0 Safari/537.36" etag="0cfHsEnc7pjSBthqf0gT" version="22.0.8" type="device">
  <diagram id="C5RBs43oDa-KdzZeNtuy" name="Page-1">
    <mxGraphModel dx="1803" dy="557" grid="1" gridSize="10" guides="1" tooltips="1" connect="1" arrows="1" fold="1" page="1" pageScale="1" pageWidth="827" pageHeight="1169" math="0" shadow="0">
      <root>
        <mxCell id="WIyWlLk6GJQsqaUBKTNV-0" />
        <mxCell id="WIyWlLk6GJQsqaUBKTNV-1" parent="WIyWlLk6GJQsqaUBKTNV-0" />
        <mxCell id="oY4ZcPHW8QW5aOl_HPhE-0" value="Start" style="ellipse;whiteSpace=wrap;html=1;" parent="WIyWlLk6GJQsqaUBKTNV-1" vertex="1">
          <mxGeometry x="264" y="41" width="120" height="80" as="geometry" />
        </mxCell>
        <mxCell id="oY4ZcPHW8QW5aOl_HPhE-1" value="Input a,b,c&lt;br&gt;Output min(a,b,c)" style="text;html=1;align=center;verticalAlign=middle;resizable=0;points=[];autosize=1;strokeColor=none;fillColor=none;" parent="WIyWlLk6GJQsqaUBKTNV-1" vertex="1">
          <mxGeometry x="-10" y="13" width="120" height="40" as="geometry" />
        </mxCell>
        <mxCell id="oY4ZcPHW8QW5aOl_HPhE-2" value="" style="endArrow=classic;html=1;rounded=0;" parent="WIyWlLk6GJQsqaUBKTNV-1" source="oY4ZcPHW8QW5aOl_HPhE-0" edge="1">
          <mxGeometry width="50" height="50" relative="1" as="geometry">
            <mxPoint x="324" y="171" as="sourcePoint" />
            <mxPoint x="324" y="160" as="targetPoint" />
          </mxGeometry>
        </mxCell>
        <mxCell id="oY4ZcPHW8QW5aOl_HPhE-5" value="" style="endArrow=classic;html=1;rounded=0;exitX=0.5;exitY=1;exitDx=0;exitDy=0;" parent="WIyWlLk6GJQsqaUBKTNV-1" edge="1">
          <mxGeometry width="50" height="50" relative="1" as="geometry">
            <mxPoint x="324" y="220" as="sourcePoint" />
            <mxPoint x="324" y="290" as="targetPoint" />
            <Array as="points">
              <mxPoint x="324" y="250" />
            </Array>
          </mxGeometry>
        </mxCell>
        <mxCell id="oY4ZcPHW8QW5aOl_HPhE-6" value="A,B,C" style="shape=parallelogram;perimeter=parallelogramPerimeter;whiteSpace=wrap;html=1;fixedSize=1;" parent="WIyWlLk6GJQsqaUBKTNV-1" vertex="1">
          <mxGeometry x="264" y="160" width="120" height="60" as="geometry" />
        </mxCell>
        <mxCell id="oY4ZcPHW8QW5aOl_HPhE-9" value="A=MIN" style="rounded=0;whiteSpace=wrap;html=1;" parent="WIyWlLk6GJQsqaUBKTNV-1" vertex="1">
          <mxGeometry x="260" y="290" width="120" height="60" as="geometry" />
        </mxCell>
        <mxCell id="oY4ZcPHW8QW5aOl_HPhE-10" value="" style="endArrow=classic;html=1;rounded=0;exitX=0.5;exitY=1;exitDx=0;exitDy=0;" parent="WIyWlLk6GJQsqaUBKTNV-1" source="oY4ZcPHW8QW5aOl_HPhE-9" edge="1">
          <mxGeometry width="50" height="50" relative="1" as="geometry">
            <mxPoint x="320" y="400" as="sourcePoint" />
            <mxPoint x="320" y="410" as="targetPoint" />
          </mxGeometry>
        </mxCell>
        <mxCell id="oY4ZcPHW8QW5aOl_HPhE-78" style="edgeStyle=orthogonalEdgeStyle;rounded=0;orthogonalLoop=1;jettySize=auto;html=1;exitX=0.5;exitY=1;exitDx=0;exitDy=0;" parent="WIyWlLk6GJQsqaUBKTNV-1" source="oY4ZcPHW8QW5aOl_HPhE-11" edge="1">
          <mxGeometry relative="1" as="geometry">
            <mxPoint x="320" y="560" as="targetPoint" />
          </mxGeometry>
        </mxCell>
        <mxCell id="oY4ZcPHW8QW5aOl_HPhE-11" value="MIN&amp;gt;B" style="rhombus;whiteSpace=wrap;html=1;" parent="WIyWlLk6GJQsqaUBKTNV-1" vertex="1">
          <mxGeometry x="280" y="410" width="80" height="80" as="geometry" />
        </mxCell>
        <mxCell id="oY4ZcPHW8QW5aOl_HPhE-79" style="edgeStyle=orthogonalEdgeStyle;rounded=0;orthogonalLoop=1;jettySize=auto;html=1;exitX=0.5;exitY=1;exitDx=0;exitDy=0;" parent="WIyWlLk6GJQsqaUBKTNV-1" source="oY4ZcPHW8QW5aOl_HPhE-33" edge="1">
          <mxGeometry relative="1" as="geometry">
            <mxPoint x="320" y="680" as="targetPoint" />
          </mxGeometry>
        </mxCell>
        <mxCell id="oY4ZcPHW8QW5aOl_HPhE-33" value="MIN=B" style="rounded=0;whiteSpace=wrap;html=1;" parent="WIyWlLk6GJQsqaUBKTNV-1" vertex="1">
          <mxGeometry x="260" y="560" width="120" height="60" as="geometry" />
        </mxCell>
        <mxCell id="oY4ZcPHW8QW5aOl_HPhE-34" value="Đ" style="text;html=1;align=center;verticalAlign=middle;resizable=0;points=[];autosize=1;strokeColor=none;fillColor=none;" parent="WIyWlLk6GJQsqaUBKTNV-1" vertex="1">
          <mxGeometry x="340" y="570" width="30" height="30" as="geometry" />
        </mxCell>
        <mxCell id="oY4ZcPHW8QW5aOl_HPhE-80" style="edgeStyle=orthogonalEdgeStyle;rounded=0;orthogonalLoop=1;jettySize=auto;html=1;exitX=0.5;exitY=1;exitDx=0;exitDy=0;" parent="WIyWlLk6GJQsqaUBKTNV-1" source="oY4ZcPHW8QW5aOl_HPhE-36" edge="1">
          <mxGeometry relative="1" as="geometry">
            <mxPoint x="320" y="800" as="targetPoint" />
          </mxGeometry>
        </mxCell>
        <mxCell id="oY4ZcPHW8QW5aOl_HPhE-36" value="MIN&amp;gt;C" style="rhombus;whiteSpace=wrap;html=1;" parent="WIyWlLk6GJQsqaUBKTNV-1" vertex="1">
          <mxGeometry x="280" y="680" width="80" height="70" as="geometry" />
        </mxCell>
        <mxCell id="oY4ZcPHW8QW5aOl_HPhE-45" style="edgeStyle=orthogonalEdgeStyle;rounded=0;orthogonalLoop=1;jettySize=auto;html=1;exitX=1;exitY=0.5;exitDx=0;exitDy=0;entryX=0;entryY=0.5;entryDx=0;entryDy=0;" parent="WIyWlLk6GJQsqaUBKTNV-1" source="oY4ZcPHW8QW5aOl_HPhE-44" target="oY4ZcPHW8QW5aOl_HPhE-46" edge="1">
          <mxGeometry relative="1" as="geometry">
            <mxPoint x="440" y="900" as="targetPoint" />
          </mxGeometry>
        </mxCell>
        <mxCell id="oY4ZcPHW8QW5aOl_HPhE-44" value="MIN=C" style="rounded=0;whiteSpace=wrap;html=1;" parent="WIyWlLk6GJQsqaUBKTNV-1" vertex="1">
          <mxGeometry x="280" y="800" width="120" height="60" as="geometry" />
        </mxCell>
        <mxCell id="oY4ZcPHW8QW5aOl_HPhE-81" style="edgeStyle=orthogonalEdgeStyle;rounded=0;orthogonalLoop=1;jettySize=auto;html=1;exitX=0.5;exitY=0;exitDx=0;exitDy=0;entryX=0.5;entryY=1;entryDx=0;entryDy=0;" parent="WIyWlLk6GJQsqaUBKTNV-1" source="oY4ZcPHW8QW5aOl_HPhE-46" target="oY4ZcPHW8QW5aOl_HPhE-49" edge="1">
          <mxGeometry relative="1" as="geometry" />
        </mxCell>
        <mxCell id="oY4ZcPHW8QW5aOl_HPhE-46" value="MIN" style="rounded=0;whiteSpace=wrap;html=1;" parent="WIyWlLk6GJQsqaUBKTNV-1" vertex="1">
          <mxGeometry x="470" y="810" width="120" height="60" as="geometry" />
        </mxCell>
        <mxCell id="oY4ZcPHW8QW5aOl_HPhE-49" value="END" style="ellipse;whiteSpace=wrap;html=1;" parent="WIyWlLk6GJQsqaUBKTNV-1" vertex="1">
          <mxGeometry x="500" y="630" width="120" height="80" as="geometry" />
        </mxCell>
        <mxCell id="oY4ZcPHW8QW5aOl_HPhE-51" style="edgeStyle=orthogonalEdgeStyle;rounded=0;orthogonalLoop=1;jettySize=auto;html=1;" parent="WIyWlLk6GJQsqaUBKTNV-1" source="oY4ZcPHW8QW5aOl_HPhE-50" edge="1">
          <mxGeometry relative="1" as="geometry">
            <mxPoint x="910" y="160" as="targetPoint" />
          </mxGeometry>
        </mxCell>
        <mxCell id="oY4ZcPHW8QW5aOl_HPhE-50" value="START" style="ellipse;whiteSpace=wrap;html=1;" parent="WIyWlLk6GJQsqaUBKTNV-1" vertex="1">
          <mxGeometry x="850" y="41" width="120" height="79" as="geometry" />
        </mxCell>
        <mxCell id="oY4ZcPHW8QW5aOl_HPhE-53" style="edgeStyle=orthogonalEdgeStyle;rounded=0;orthogonalLoop=1;jettySize=auto;html=1;exitX=0.5;exitY=1;exitDx=0;exitDy=0;" parent="WIyWlLk6GJQsqaUBKTNV-1" source="oY4ZcPHW8QW5aOl_HPhE-52" edge="1">
          <mxGeometry relative="1" as="geometry">
            <mxPoint x="850" y="280" as="targetPoint" />
          </mxGeometry>
        </mxCell>
        <mxCell id="oY4ZcPHW8QW5aOl_HPhE-52" value="A,B" style="shape=parallelogram;perimeter=parallelogramPerimeter;whiteSpace=wrap;html=1;fixedSize=1;" parent="WIyWlLk6GJQsqaUBKTNV-1" vertex="1">
          <mxGeometry x="850" y="160" width="120" height="60" as="geometry" />
        </mxCell>
        <mxCell id="oY4ZcPHW8QW5aOl_HPhE-56" style="edgeStyle=orthogonalEdgeStyle;rounded=0;orthogonalLoop=1;jettySize=auto;html=1;" parent="WIyWlLk6GJQsqaUBKTNV-1" source="oY4ZcPHW8QW5aOl_HPhE-55" edge="1">
          <mxGeometry relative="1" as="geometry">
            <mxPoint x="1000" y="310" as="targetPoint" />
          </mxGeometry>
        </mxCell>
        <mxCell id="oY4ZcPHW8QW5aOl_HPhE-57" value="TRUE" style="edgeLabel;html=1;align=center;verticalAlign=middle;resizable=0;points=[];" parent="oY4ZcPHW8QW5aOl_HPhE-56" vertex="1" connectable="0">
          <mxGeometry x="0.0128" y="-6" relative="1" as="geometry">
            <mxPoint y="-6" as="offset" />
          </mxGeometry>
        </mxCell>
        <mxCell id="oY4ZcPHW8QW5aOl_HPhE-71" style="edgeStyle=orthogonalEdgeStyle;rounded=0;orthogonalLoop=1;jettySize=auto;html=1;exitX=0.5;exitY=1;exitDx=0;exitDy=0;" parent="WIyWlLk6GJQsqaUBKTNV-1" source="oY4ZcPHW8QW5aOl_HPhE-55" edge="1">
          <mxGeometry relative="1" as="geometry">
            <mxPoint x="850" y="400" as="targetPoint" />
          </mxGeometry>
        </mxCell>
        <mxCell id="oY4ZcPHW8QW5aOl_HPhE-55" value="A=0" style="rounded=0;whiteSpace=wrap;html=1;" parent="WIyWlLk6GJQsqaUBKTNV-1" vertex="1">
          <mxGeometry x="790" y="280" width="120" height="60" as="geometry" />
        </mxCell>
        <mxCell id="oY4ZcPHW8QW5aOl_HPhE-59" style="edgeStyle=orthogonalEdgeStyle;rounded=0;orthogonalLoop=1;jettySize=auto;html=1;exitX=1;exitY=0.5;exitDx=0;exitDy=0;" parent="WIyWlLk6GJQsqaUBKTNV-1" source="oY4ZcPHW8QW5aOl_HPhE-58" edge="1">
          <mxGeometry relative="1" as="geometry">
            <mxPoint x="1190" y="310" as="targetPoint" />
          </mxGeometry>
        </mxCell>
        <mxCell id="oY4ZcPHW8QW5aOl_HPhE-60" value="TRUE" style="edgeLabel;html=1;align=center;verticalAlign=middle;resizable=0;points=[];" parent="oY4ZcPHW8QW5aOl_HPhE-59" vertex="1" connectable="0">
          <mxGeometry x="-0.0335" y="-3" relative="1" as="geometry">
            <mxPoint y="-3" as="offset" />
          </mxGeometry>
        </mxCell>
        <mxCell id="oY4ZcPHW8QW5aOl_HPhE-63" style="edgeStyle=orthogonalEdgeStyle;rounded=0;orthogonalLoop=1;jettySize=auto;html=1;exitX=0.5;exitY=0;exitDx=0;exitDy=0;" parent="WIyWlLk6GJQsqaUBKTNV-1" source="oY4ZcPHW8QW5aOl_HPhE-58" edge="1">
          <mxGeometry relative="1" as="geometry">
            <mxPoint x="1040" y="200" as="targetPoint" />
          </mxGeometry>
        </mxCell>
        <mxCell id="oY4ZcPHW8QW5aOl_HPhE-65" value="FALSE" style="edgeLabel;html=1;align=center;verticalAlign=middle;resizable=0;points=[];" parent="oY4ZcPHW8QW5aOl_HPhE-63" vertex="1" connectable="0">
          <mxGeometry x="-0.0922" y="-2" relative="1" as="geometry">
            <mxPoint as="offset" />
          </mxGeometry>
        </mxCell>
        <mxCell id="oY4ZcPHW8QW5aOl_HPhE-58" value="B=0" style="rhombus;whiteSpace=wrap;html=1;" parent="WIyWlLk6GJQsqaUBKTNV-1" vertex="1">
          <mxGeometry x="1000" y="270" width="80" height="80" as="geometry" />
        </mxCell>
        <mxCell id="oY4ZcPHW8QW5aOl_HPhE-69" style="edgeStyle=orthogonalEdgeStyle;rounded=0;orthogonalLoop=1;jettySize=auto;html=1;exitX=0.5;exitY=1;exitDx=0;exitDy=0;entryX=0.5;entryY=0;entryDx=0;entryDy=0;" parent="WIyWlLk6GJQsqaUBKTNV-1" source="oY4ZcPHW8QW5aOl_HPhE-62" target="oY4ZcPHW8QW5aOl_HPhE-68" edge="1">
          <mxGeometry relative="1" as="geometry" />
        </mxCell>
        <mxCell id="oY4ZcPHW8QW5aOl_HPhE-62" value="PT VÔ SỐ NGIỆM" style="shape=parallelogram;perimeter=parallelogramPerimeter;whiteSpace=wrap;html=1;fixedSize=1;" parent="WIyWlLk6GJQsqaUBKTNV-1" vertex="1">
          <mxGeometry x="1181" y="280" width="120" height="60" as="geometry" />
        </mxCell>
        <mxCell id="oY4ZcPHW8QW5aOl_HPhE-66" style="edgeStyle=orthogonalEdgeStyle;rounded=0;orthogonalLoop=1;jettySize=auto;html=1;" parent="WIyWlLk6GJQsqaUBKTNV-1" source="oY4ZcPHW8QW5aOl_HPhE-64" edge="1">
          <mxGeometry relative="1" as="geometry">
            <mxPoint x="1370" y="440" as="targetPoint" />
          </mxGeometry>
        </mxCell>
        <mxCell id="oY4ZcPHW8QW5aOl_HPhE-64" value="PT VÔ NGHIỆM" style="shape=parallelogram;perimeter=parallelogramPerimeter;whiteSpace=wrap;html=1;fixedSize=1;" parent="WIyWlLk6GJQsqaUBKTNV-1" vertex="1">
          <mxGeometry x="980" y="140" width="120" height="60" as="geometry" />
        </mxCell>
        <mxCell id="oY4ZcPHW8QW5aOl_HPhE-67" value="" style="endArrow=classic;html=1;rounded=0;entryX=1;entryY=0.5;entryDx=0;entryDy=0;" parent="WIyWlLk6GJQsqaUBKTNV-1" target="oY4ZcPHW8QW5aOl_HPhE-68" edge="1">
          <mxGeometry width="50" height="50" relative="1" as="geometry">
            <mxPoint x="1370" y="440" as="sourcePoint" />
            <mxPoint x="1160" y="430" as="targetPoint" />
          </mxGeometry>
        </mxCell>
        <mxCell id="oY4ZcPHW8QW5aOl_HPhE-68" value="END" style="ellipse;whiteSpace=wrap;html=1;" parent="WIyWlLk6GJQsqaUBKTNV-1" vertex="1">
          <mxGeometry x="970" y="400" width="120" height="80" as="geometry" />
        </mxCell>
        <mxCell id="oY4ZcPHW8QW5aOl_HPhE-73" style="edgeStyle=orthogonalEdgeStyle;rounded=0;orthogonalLoop=1;jettySize=auto;html=1;" parent="WIyWlLk6GJQsqaUBKTNV-1" source="oY4ZcPHW8QW5aOl_HPhE-72" edge="1">
          <mxGeometry relative="1" as="geometry">
            <mxPoint x="850" y="450" as="targetPoint" />
          </mxGeometry>
        </mxCell>
        <mxCell id="oY4ZcPHW8QW5aOl_HPhE-72" value="X=B/A" style="rounded=0;whiteSpace=wrap;html=1;" parent="WIyWlLk6GJQsqaUBKTNV-1" vertex="1">
          <mxGeometry x="790" y="400" width="120" height="20" as="geometry" />
        </mxCell>
        <mxCell id="oY4ZcPHW8QW5aOl_HPhE-76" style="edgeStyle=orthogonalEdgeStyle;rounded=0;orthogonalLoop=1;jettySize=auto;html=1;" parent="WIyWlLk6GJQsqaUBKTNV-1" source="oY4ZcPHW8QW5aOl_HPhE-74" target="oY4ZcPHW8QW5aOl_HPhE-68" edge="1">
          <mxGeometry relative="1" as="geometry" />
        </mxCell>
        <mxCell id="oY4ZcPHW8QW5aOl_HPhE-74" value="X" style="rounded=0;whiteSpace=wrap;html=1;" parent="WIyWlLk6GJQsqaUBKTNV-1" vertex="1">
          <mxGeometry x="790" y="450" width="120" height="30" as="geometry" />
        </mxCell>
      </root>
    </mxGraphModel>
  </diagram>
</mxfile>
